<?xml version="1.0" standalone="no"?>
<!DOCTYPE svg PUBLIC "-//W3C//DTD SVG 20010904//EN"
 "http://www.w3.org/TR/2001/REC-SVG-20010904/DTD/svg10.dtd">
<svg version="1.0" xmlns="http://www.w3.org/2000/svg"
 width="512.000000pt" height="512.000000pt" viewBox="0 0 512.000000 512.000000"
 preserveAspectRatio="xMidYMid meet">
<metadata>
Created by potrace 1.14, written by Peter Selinger 2001-2017
</metadata>
<g transform="translate(0.000000,512.000000) scale(0.100000,-0.100000)"
fill="#000000" stroke="none">
<path d="M2385 5109 c-27 -4 -70 -10 -95 -13 -324 -47 -659 -222 -905 -472
-391 -397 -550 -949 -435 -1510 32 -156 120 -369 216 -521 54 -87 273 -431
420 -660 98 -154 119 -193 106 -197 -14 -4 -159 -32 -272 -52 -218 -40 -562
-168 -750 -280 -134 -79 -264 -209 -314 -315 -148 -313 74 -623 594 -829 112
-45 365 -122 449 -136 14 -3 46 -10 71 -15 52 -12 56 -13 175 -33 110 -19 292
-42 400 -52 44 -4 94 -8 110 -11 64 -8 685 -10 780 -3 185 15 260 21 275 25 8
2 40 7 70 10 30 3 109 15 175 26 724 121 1201 362 1326 670 30 75 35 207 10
283 -80 243 -371 452 -821 589 -134 41 -340 90 -455 108 -44 7 -83 15 -88 19
-4 3 117 202 269 441 153 239 294 465 316 503 70 127 139 317 167 466 6 30 13
69 17 85 14 66 12 380 -2 470 -61 370 -212 670 -467 927 -247 250 -555 408
-912 469 -81 14 -356 19 -430 8z m375 -919 c128 -36 223 -94 325 -195 73 -73
99 -107 136 -180 114 -224 115 -457 2 -685 -39 -80 -61 -110 -137 -186 -77
-76 -106 -98 -187 -138 -122 -60 -236 -85 -369 -81 -105 3 -154 13 -250 52
-186 76 -337 226 -411 409 -43 107 -58 191 -54 304 4 138 19 200 75 312 101
205 291 351 522 402 87 20 252 13 348 -14z"/>
</g>
</svg>
